<?xml version="1.0" ?><svg viewBox="0 0 512 512" xmlns="http://www.w3.org/2000/svg"><g id="Award_Winning"><path d="M338.0884,460.219l-13.6465-95.645a5,5,0,0,0-4.95-4.294H306.1873l-18.8045-25.7739,8.6043-86.6429c.1093-.0959.2216-.1864.3269-.2892l35.4785-34.6763a8.0008,8.0008,0,0,0,2.4082-5.7212V142.7644a8,8,0,0,0-4.1226-6.9976l-41.6789-23.0954a7.9527,7.9527,0,0,0,.2326-1.83V78.7068a32.6318,32.6318,0,1,0-65.2636,0v25.1348a32.46,32.46,0,0,0,1.0966,8.351l-42.5429,23.5742a8,8,0,0,0-4.1226,6.9976v64.4121a8.0008,8.0008,0,0,0,2.4082,5.7212L215.686,247.574c.1052.1028.2176.1928.3268.2885l8.6044,86.6436L205.8127,360.28H192.5078a5,5,0,0,0-4.95,4.294l-13.6465,95.645a5,5,0,0,0,4.95,5.706H333.1387a5,5,0,0,0,4.95-5.706ZM279.001,404.95v19.9057H232.999V404.95Zm-39.6582-63.48a8,8,0,0,0,1.498-5.5059L225.8291,184.8a8,8,0,0,0-15.9219,1.581l3.6483,36.7379-19.7562-19.31V147.4773l44.5625-24.6934a8,8,0,0,0,3.1055-10.9008,16.524,16.524,0,0,1-2.0991-8.0415V78.7068a16.6212,16.6212,0,0,1,33.213-1l-12.9425,4.448a7.999,7.999,0,0,0-5.4,7.5655v29.2583a8,8,0,0,0,11.2368,7.3159l8.0681-3.5694c.0323.0185.0619.0406.0945.0586l44.5625,24.6934v56.3315l-19.7562,19.31,3.6483-36.7379a8,8,0,0,0-15.9219-1.581l-15.0117,151.164a8,8,0,0,0,1.498,5.5059l13.724,18.81H225.6188Z"/></g></svg>